<svg width="41" height="44" viewBox="0 0 41 44" fill="none" xmlns="http://www.w3.org/2000/svg">
<path d="M9.88672 22.0068C9.88672 21.9017 9.90609 21.8049 9.94482 21.7163C9.98356 21.6222 10.0417 21.5365 10.1191 21.459L16.7017 15.0176C16.8511 14.8737 17.0309 14.8018 17.2412 14.8018C17.3851 14.8018 17.5124 14.835 17.623 14.9014C17.7393 14.9678 17.8306 15.0591 17.897 15.1753C17.9689 15.286 18.0049 15.4132 18.0049 15.5571C18.0049 15.7619 17.9302 15.9417 17.7808 16.0967L11.7378 22.0068L17.7808 27.917C17.9302 28.0719 18.0049 28.2518 18.0049 28.4565C18.0049 28.6004 17.9689 28.7277 17.897 28.8384C17.8306 28.9546 17.7393 29.0459 17.623 29.1123C17.5124 29.1787 17.3851 29.2119 17.2412 29.2119C17.0309 29.2119 16.8511 29.1372 16.7017 28.9878L10.1191 22.5547C10.0417 22.4772 9.98356 22.3942 9.94482 22.3057C9.90609 22.2116 9.88672 22.112 9.88672 22.0068Z" fill="black" fill-opacity="0.8"/>
</svg>
