<svg width="27" height="28" viewBox="0 0 27 28" fill="none" xmlns="http://www.w3.org/2000/svg">
<path d="M13.5 17.5C15.71 17.5 17.5 15.71 17.5 13.5V8C17.5 5.79 15.71 4 13.5 4C11.29 4 9.5 5.79 9.5 8V13.5C9.5 15.71 11.29 17.5 13.5 17.5Z" stroke="#242925" stroke-opacity="0.4" stroke-width="1.5" stroke-linecap="round" stroke-linejoin="round"/>
<path d="M5.8501 11.65V13.35C5.8501 17.57 9.2801 21 13.5001 21C17.7201 21 21.1501 17.57 21.1501 13.35V11.65" stroke="#242925" stroke-opacity="0.4" stroke-width="1.5" stroke-linecap="round" stroke-linejoin="round"/>
<path d="M12.1099 8.43C13.0099 8.1 13.9899 8.1 14.8899 8.43" stroke="#242925" stroke-opacity="0.4" stroke-width="1.5" stroke-linecap="round" stroke-linejoin="round"/>
<path d="M12.7002 10.55C13.2302 10.41 13.7802 10.41 14.3102 10.55" stroke="#242925" stroke-opacity="0.4" stroke-width="1.5" stroke-linecap="round" stroke-linejoin="round"/>
<path d="M13.5 21V24" stroke="#242925" stroke-opacity="0.4" stroke-width="1.5" stroke-linecap="round" stroke-linejoin="round"/>
</svg>
