<svg width="57" height="57" viewBox="0 0 57 57" fill="none" xmlns="http://www.w3.org/2000/svg">
<g clip-path="url(#clip0_890_22156)">
<path d="M1.66663 45.9883H55.3333" stroke="#90BF0A" stroke-width="2" stroke-linecap="round" stroke-linejoin="round"/>
<path d="M20.3334 15.6546C20.3334 18.13 21.3167 20.5039 23.067 22.2543C24.8174 24.0046 27.1914 24.988 29.6667 24.988C32.1421 24.988 34.516 24.0046 36.2664 22.2543C38.0167 20.5039 39 18.13 39 15.6546C39 13.1793 38.0167 10.8053 36.2664 9.05496C34.516 7.30462 32.1421 6.32129 29.6667 6.32129C27.1914 6.32129 24.8174 7.30462 23.067 9.05496C21.3167 10.8053 20.3334 13.1793 20.3334 15.6546Z" stroke="#90BF0A" stroke-width="2" stroke-linecap="round" stroke-linejoin="round"/>
<path d="M33.1993 7.01491C35.3927 1.64591 40.771 0.500239 46 2.83357" stroke="#90BF0A" stroke-width="2" stroke-linecap="round" stroke-linejoin="round"/>
<path d="M15.781 13.0205C11.5114 15.3189 7.94438 18.7312 5.45913 22.8948C2.97388 27.0584 1.66327 31.8176 1.66663 36.6665V51.8332C1.66663 52.7614 2.03538 53.6517 2.69176 54.308C3.34814 54.9644 4.23837 55.3332 5.16663 55.3332H53C53.6188 55.3332 54.2123 55.0873 54.6499 54.6498C55.0875 54.2122 55.3333 53.6187 55.3333 52.9998V37.6208C55.3332 37.0021 55.0872 36.4087 54.6496 35.9712L42.7496 24.0712" stroke="#90BF0A" stroke-width="2" stroke-linecap="round" stroke-linejoin="round"/>
<path d="M55.1233 36.6553H1.66663" stroke="#90BF0A" stroke-width="2" stroke-linecap="round" stroke-linejoin="round"/>
</g>
<defs>
<clipPath id="clip0_890_22156">
<rect width="56" height="56" fill="white" transform="translate(0.5 0.5)"/>
</clipPath>
</defs>
</svg>
