<svg width="57" height="57" viewBox="0 0 57 57" fill="none" xmlns="http://www.w3.org/2000/svg">
<g clip-path="url(#clip0_890_22150)">
<path d="M19.7678 8.28944C19.0785 8.57498 18.4429 8.97407 17.8873 9.46927L17.1679 8.755C18.5735 7.48126 20.4053 6.76971 22.3112 6.76671C24.2177 6.76371 26.0522 7.46989 27.4619 8.73986L26.7394 9.46751C26.1842 8.97312 25.5494 8.57464 24.8609 8.28944C24.0535 7.955 23.1882 7.78287 22.3143 7.78287C21.4404 7.78287 20.5751 7.955 19.7678 8.28944Z" fill="#90BF0A" stroke="#90BF0A" stroke-width="0.767774"/>
<path d="M13.7797 42.2502C13.7797 42.5329 13.5505 42.7621 13.2678 42.7621C12.9851 42.7621 12.756 42.5329 12.756 42.2502C12.756 41.9675 12.9851 41.7384 13.2678 41.7384C13.5505 41.7384 13.7797 41.9675 13.7797 42.2502Z" fill="#90BF0A" stroke="#90BF0A" stroke-width="0.767774"/>
<path d="M27.8242 31.9184L27.8264 31.9173C27.9129 31.8754 27.9859 31.81 28.037 31.7285C28.088 31.647 28.1151 31.5528 28.1151 31.4566C28.1151 31.3605 28.088 31.2663 28.037 31.1848C27.9859 31.1033 27.9129 31.0379 27.8264 30.996L27.8216 30.9936L27.8216 30.9936C26.6408 30.4013 25.3379 30.0931 24.0168 30.0938L24.0168 30.0938C21.9381 30.0946 19.9304 30.8506 18.3675 32.2212C16.8046 33.5917 15.7928 35.4834 15.5205 37.5442L15.4838 37.8218L15.2082 37.8717C12.7043 38.3245 10.4934 39.0216 8.91932 39.9364C7.3349 40.8572 6.48582 41.9406 6.48582 43.146C6.48582 44.0194 6.92669 44.8232 7.77264 45.5547C8.62236 46.2896 9.85452 46.9261 11.3568 47.4467C14.3587 48.4869 18.3445 49.0323 22.2252 49.0323H22.4191L22.5341 49.1883C23.7218 50.799 25.4391 51.9397 27.3843 52.4099C29.3295 52.8802 31.3782 52.6499 33.1705 51.7596L33.1723 51.7586C33.2585 51.7164 33.331 51.6508 33.3817 51.5694C33.4324 51.4879 33.4592 51.3939 33.459 51.298C33.4586 51.2036 33.4322 51.1111 33.3825 51.0308C33.333 50.9506 33.2622 50.8857 33.178 50.8431C32.1781 50.3435 31.3015 49.628 30.6117 48.7483L30.2302 48.2618L30.8355 48.1356C32.696 47.748 34.4731 47.0342 36.0848 46.0272L36.4653 45.7894L36.6413 46.2021C37.4308 48.0532 38.9154 49.5204 40.7757 50.2878C42.6357 51.0551 44.7226 51.0615 46.5872 50.3059C46.6809 50.2673 46.7609 50.2018 46.8173 50.1177C46.8738 50.0333 46.904 49.9342 46.904 49.8327C46.904 49.7312 46.8738 49.632 46.8173 49.5477C46.7611 49.4638 46.6813 49.3984 46.5881 49.3598C46.5876 49.3596 46.5871 49.3594 46.5866 49.3592L46.7325 49.0041C45.5686 48.5389 44.5709 47.7355 43.868 46.6977C43.1652 45.6599 42.7895 44.4352 42.7895 43.1818C42.7895 41.9284 43.1652 40.7038 43.868 39.6659C44.5709 38.6281 45.5686 37.8248 46.7325 37.3595L27.8242 31.9184ZM27.8242 31.9184C26.847 32.3993 25.9866 33.0879 25.3033 33.9359C24.6199 34.784 24.1301 35.7711 23.868 36.8282L23.7554 37.2822L24.2226 37.3041C29.348 37.5448 33.7382 38.6859 36.0673 40.3249L36.4552 40.5979L36.6413 40.1615C37.4308 38.3104 38.9154 36.8433 40.7757 36.0759C42.6358 35.3086 44.7228 35.3021 46.5875 36.0579C46.681 36.0965 46.761 36.162 46.8173 36.246C46.8738 36.3303 46.904 36.4295 46.904 36.531C46.904 36.6325 46.8738 36.7317 46.8173 36.816C46.7611 36.8998 46.6814 36.9652 46.5882 37.0038L27.8242 31.9184ZM22.2256 38.2834C20.4105 38.2792 18.5973 38.4001 16.7989 38.6452L16.2853 38.7153L16.502 39.1861C17.0737 40.428 17.3698 41.7789 17.3698 43.146C17.3698 44.5131 17.0737 45.864 16.502 47.1058L16.2853 47.5767L16.7989 47.6467C18.5975 47.8919 20.4108 48.0128 22.2261 48.0086C25.9547 48.0085 29.0819 47.5572 31.4731 46.8951C33.8461 46.2381 35.5476 45.3587 36.3658 44.4617L36.3672 44.4602C36.415 44.4071 36.4735 44.3647 36.5387 44.3356C36.6039 44.3065 36.6745 44.2914 36.7459 44.2913L36.768 44.2912L36.7899 44.2886C36.8262 44.2844 36.8628 44.2836 36.8992 44.2862C36.9809 44.3109 37.0554 44.3558 37.1155 44.4168C37.1813 44.4834 37.2275 44.5668 37.2491 44.6579C37.601 46.1729 38.4724 47.5168 39.7121 48.4562C40.9521 49.3957 42.482 49.871 44.036 49.7996L45.0463 49.7532L44.2597 49.1176C43.3691 48.3979 42.6508 47.4881 42.1573 46.4548C41.6638 45.4216 41.4077 44.291 41.4077 43.146C41.4077 42.001 41.6638 40.8704 42.1573 39.8372C42.6508 38.8039 43.3691 37.8941 44.2597 37.1744L45.0484 36.5371L44.0354 36.4923C42.4816 36.4237 40.9529 36.9014 39.7148 37.8426C38.4769 38.7836 37.6077 40.1284 37.258 41.6435C37.2363 41.7344 37.1901 41.8176 37.1245 41.8842L37.3978 42.1538L37.1245 41.8842C37.0586 41.951 36.9756 41.9984 36.8846 42.0212L36.8846 42.0212L36.8801 42.0224C36.7889 42.0464 36.6928 42.0448 36.6025 42.0177C36.5122 41.9906 36.4311 41.9391 36.3682 41.8688C35.5496 40.9518 33.8468 40.0631 31.4737 39.4015C29.082 38.7348 25.9544 38.2835 22.2256 38.2834ZM22.2256 38.2834C22.2255 38.2834 22.2253 38.2834 22.2252 38.2834V38.6673L22.2261 38.2834C22.2259 38.2834 22.2258 38.2834 22.2256 38.2834ZM22.7277 37.2597H22.4133L22.2256 37.2597L22.2252 37.2597M22.7277 37.2597L17.4066 37.1583C19.006 36.9719 20.6148 36.8776 22.2252 36.8758V37.2597M22.7277 37.2597L22.7896 36.9515C23.1842 34.9891 24.2586 33.2288 25.8235 31.9807L26.4457 31.4845L25.6701 31.3064C25.1279 31.182 24.5736 31.1186 24.0174 31.1175L24.0165 31.1175C22.2817 31.118 20.5999 31.716 19.2541 32.8108C17.9083 33.9056 16.9807 35.4306 16.6272 37.1291L16.5176 37.6555L17.0511 37.5881C18.7673 37.3713 20.4953 37.2616 22.2252 37.2597M22.7277 37.2597H22.2252M14.8944 47.3383L15.1697 47.3933L15.3056 47.1477C15.9833 45.9228 16.3388 44.5458 16.3388 43.146C16.3388 41.7461 15.9833 40.3692 15.3056 39.1443L15.1698 38.8989L14.8947 38.9537C12.6206 39.4067 10.8098 40.0492 9.55675 40.7559C8.93094 41.1089 8.43004 41.4858 8.08087 41.8754C7.73431 42.262 7.50951 42.6934 7.50951 43.146C7.50951 43.5994 7.7362 44.031 8.08396 44.4173C8.4345 44.8066 8.93698 45.1834 9.56373 45.5362C10.8187 46.2427 12.6293 46.8852 14.8944 47.3383ZM31.0522 51.4029L31.8184 51.2297L31.211 50.7316C30.4924 50.1424 29.8758 49.4389 29.3858 48.6494L29.2497 48.43L28.9951 48.4734C27.5275 48.7236 26.0467 48.8894 24.5601 48.9701L23.6401 49.0201L24.3234 49.6382C25.2213 50.4503 26.3014 51.0345 27.4725 51.3417C28.6435 51.6488 29.8713 51.6698 31.0522 51.4029ZM36.745 43.9074C36.62 43.9077 36.4965 43.9341 36.3823 43.985C36.2682 44.0359 36.1659 44.1102 36.0822 44.203C34.5953 45.8332 29.6239 47.6247 22.2252 47.6247L36.745 43.9074Z" fill="#90BF0A" stroke="#90BF0A" stroke-width="0.767774"/>
<mask id="path-4-inside-1_890_22150" fill="white">
<path d="M55.1726 19.8576C55.6195 19.3328 55.942 18.7138 56.1157 18.0467C56.2895 17.3797 56.31 16.682 56.1758 16.0059V15.8626C55.4585 12.5437 53.6643 9.5549 51.0723 7.36142C48.4803 5.16794 45.2359 3.89277 41.844 3.73433C38.0645 3.58231 34.3667 4.86182 31.4893 7.31727C31.0994 6.80766 30.6712 6.32854 30.2084 5.8841C28.0722 3.94113 25.2941 2.85482 22.4064 2.83333C19.5188 2.81185 16.7249 3.85669 14.5599 5.76765C13.3667 6.82695 12.4061 8.12206 11.7385 9.57126C11.071 11.0205 10.711 12.5923 10.6814 14.1876C10.6769 17.6848 9.31534 21.0437 6.88347 23.557C5.90838 23.1692 4.82809 23.1361 3.83112 23.4636C2.83414 23.791 1.98379 24.4581 1.42844 25.3484C1.00648 26.0471 0.783447 26.8477 0.783447 27.6639C0.783447 28.4801 1.00648 29.2807 1.42844 29.9794C1.76755 30.5573 2.23448 31.0499 2.79343 31.4194C3.35238 31.789 3.98852 32.0256 4.65309 32.1112C4.8 33.1814 5.32874 34.1625 6.1419 34.8736C6.95505 35.5846 7.99781 35.9779 9.07802 35.9808C9.90816 35.9838 10.722 35.7508 11.4249 35.309C12.3132 34.754 12.9789 33.9052 13.3062 32.9102C13.6335 31.9152 13.6017 30.8369 13.2163 29.8629C15.7048 27.4508 19.0395 26.1099 22.5051 26.1277C24.1541 26.0978 25.7781 25.7193 27.2704 25.017C28.2467 27.2597 29.7444 29.2368 31.639 30.7839C33.5335 32.3309 35.77 33.4033 38.1626 33.9117H38.3059C38.6005 33.9731 38.9007 34.0031 39.2016 34.0012C40.2868 34.0006 41.3368 33.6168 42.1665 32.9174C42.7425 32.4376 43.2027 31.834 43.5129 31.1516C43.8231 30.4692 43.9752 29.7256 43.958 28.9762C43.9479 28.3736 44.0111 27.772 44.1461 27.1847C44.4478 25.875 45.1117 24.6766 46.062 23.7262C47.0124 22.7759 48.2108 22.112 49.5205 21.8103C50.107 21.6705 50.7092 21.6073 51.312 21.6222C52.0451 21.6269 52.7705 21.4715 53.4374 21.1667C54.1042 20.8619 54.6964 20.4151 55.1726 19.8576ZM22.4782 24.3363C18.5402 24.3428 14.7616 25.8928 11.9533 28.6537L11.4607 29.1464C11.3219 29.2869 11.2335 29.4694 11.2092 29.6654C11.1849 29.8614 11.2261 30.06 11.3263 30.2302C11.5448 30.5924 11.6748 31.0012 11.7055 31.4231C11.7362 31.845 11.6669 32.2683 11.5031 32.6584C11.3393 33.0484 11.0858 33.3944 10.7631 33.6679C10.4404 33.9415 10.0577 34.135 9.64607 34.2328C9.23446 34.3305 8.80558 34.3296 8.39435 34.2303C7.98313 34.131 7.60116 33.9359 7.27955 33.6611C6.95793 33.3862 6.70576 33.0393 6.54354 32.6486C6.38133 32.2579 6.31365 31.8344 6.34603 31.4126C6.36314 31.2798 6.3503 31.145 6.30845 31.0179C6.2666 30.8908 6.1968 30.7747 6.10418 30.6781C5.93734 30.5126 5.71215 30.4193 5.47717 30.4183H5.39655C4.97353 30.4541 4.54804 30.3892 4.15495 30.2288C3.76186 30.0684 3.41236 29.8172 3.13508 29.4958C2.8578 29.1743 2.66064 28.7917 2.55974 28.3793C2.45884 27.9669 2.45709 27.5365 2.55461 27.1233C2.65214 26.7102 2.84617 26.326 3.12082 26.0022C3.39546 25.6785 3.7429 25.4244 4.13467 25.2609C4.52643 25.0973 4.95137 25.0289 5.37468 25.0613C5.79798 25.0936 6.2076 25.2258 6.56997 25.447C6.74108 25.5494 6.94149 25.5918 7.13944 25.5675C7.3374 25.5432 7.52157 25.4535 7.66276 25.3126L8.14646 24.8199C10.9117 21.9848 12.4636 18.1838 12.4729 14.2234C12.4931 12.867 12.7949 11.5296 13.3593 10.296C13.9236 9.06248 14.7382 7.95965 15.7513 7.05751C17.5824 5.43998 19.9464 4.55548 22.3896 4.57366C24.8328 4.59185 27.1833 5.51143 28.9902 7.15604C30.4679 8.48442 31.5093 10.2285 31.978 12.1594C32.4467 14.0903 32.3206 16.1178 31.6164 17.9757C30.9121 19.8337 29.6626 21.4353 28.0318 22.5704C26.401 23.7055 24.4651 24.3211 22.4782 24.3363ZM53.829 18.7648C53.5115 19.1301 53.115 19.4183 52.6696 19.6076C52.2242 19.797 51.7416 19.8825 51.2582 19.8576C50.5205 19.8473 49.7841 19.9224 49.0637 20.0815C47.4257 20.4516 45.9261 21.2782 44.7387 22.4656C43.5513 23.653 42.7247 25.1526 42.3546 26.7906C42.1951 27.5139 42.1199 28.2534 42.1307 28.9941C42.1467 29.4671 42.0568 29.9377 41.8678 30.3716C41.6787 30.8055 41.3952 31.1918 41.0379 31.5021C40.718 31.7774 40.3396 31.9761 39.9314 32.0832C39.5232 32.1903 39.0959 32.203 38.6821 32.1202H38.5567C36.4112 31.6595 34.4094 30.6853 32.7229 29.2813C31.0365 27.8772 29.7157 26.0851 28.8738 24.0586C29.4874 23.6452 30.0603 23.1743 30.5846 22.6523C30.8407 22.3967 31.0829 22.1276 31.3102 21.8461C31.8603 23.1773 32.6957 24.3717 33.7573 25.3451C34.819 26.3185 36.0811 27.0474 37.4549 27.4803C37.7826 27.5829 38.13 27.6055 38.4682 27.5463C38.8063 27.4871 39.1254 27.3477 39.3987 27.1399C39.6853 26.9128 39.9154 26.6223 40.0709 26.2913C40.2263 25.9602 40.3028 25.5976 40.2944 25.232C40.2944 23.0939 41.1438 21.0434 42.6556 19.5316C44.1675 18.0197 46.218 17.1704 48.356 17.1704H49.0099C49.147 17.1859 49.2859 17.1695 49.4156 17.1225C49.5453 17.0755 49.6624 16.9992 49.7578 16.8994C49.8532 16.7997 49.9242 16.6793 49.9654 16.5477C50.0066 16.416 50.0168 16.2766 49.9952 16.1403C49.6442 14.4022 48.8306 12.791 47.6402 11.4767C46.4499 10.1624 44.9269 9.1937 43.232 8.67273C41.537 8.15177 39.7329 8.09787 38.0098 8.51671C36.2868 8.93555 34.7087 9.81161 33.442 11.0525C33.2047 10.2649 32.8834 9.50515 32.4836 8.78628C35.0471 6.54831 38.3725 5.38103 41.7724 5.5258C44.7677 5.67236 47.6303 6.80634 49.9134 8.7508C52.1965 10.6953 53.7718 13.3408 54.3933 16.2746V16.4C54.4768 16.8077 54.4669 17.2289 54.3646 17.6322C54.2622 18.0355 54.0699 18.4105 53.8021 18.7289L53.829 18.7648ZM33.872 13.256C34.744 12.0825 35.9187 11.1682 37.2703 10.611C38.622 10.0538 40.0997 9.8747 41.5453 10.0928C42.991 10.3109 44.3501 10.918 45.4772 11.8491C46.6043 12.7803 47.457 14.0004 47.944 15.3789C45.4108 15.4965 43.0204 16.5862 41.2703 18.4215C39.5201 20.2567 38.545 22.696 38.5477 25.232C38.5488 25.3203 38.5291 25.4077 38.4902 25.4871C38.4513 25.5664 38.3943 25.6355 38.3238 25.6888C38.2752 25.7272 38.2179 25.753 38.157 25.7639C38.096 25.7749 38.0334 25.7706 37.9745 25.7515C36.6524 25.3429 35.4577 24.6009 34.5054 23.5969C33.5532 22.5929 32.8754 21.3607 32.5373 20.0188C33.512 18.2356 34.003 16.2283 33.9616 14.1965C33.9526 13.892 33.9257 13.5874 33.872 13.256Z"/>
</mask>
<path d="M55.1726 19.8576C55.6195 19.3328 55.942 18.7138 56.1157 18.0467C56.2895 17.3797 56.31 16.682 56.1758 16.0059V15.8626C55.4585 12.5437 53.6643 9.5549 51.0723 7.36142C48.4803 5.16794 45.2359 3.89277 41.844 3.73433C38.0645 3.58231 34.3667 4.86182 31.4893 7.31727C31.0994 6.80766 30.6712 6.32854 30.2084 5.8841C28.0722 3.94113 25.2941 2.85482 22.4064 2.83333C19.5188 2.81185 16.7249 3.85669 14.5599 5.76765C13.3667 6.82695 12.4061 8.12206 11.7385 9.57126C11.071 11.0205 10.711 12.5923 10.6814 14.1876C10.6769 17.6848 9.31534 21.0437 6.88347 23.557C5.90838 23.1692 4.82809 23.1361 3.83112 23.4636C2.83414 23.791 1.98379 24.4581 1.42844 25.3484C1.00648 26.0471 0.783447 26.8477 0.783447 27.6639C0.783447 28.4801 1.00648 29.2807 1.42844 29.9794C1.76755 30.5573 2.23448 31.0499 2.79343 31.4194C3.35238 31.789 3.98852 32.0256 4.65309 32.1112C4.8 33.1814 5.32874 34.1625 6.1419 34.8736C6.95505 35.5846 7.99781 35.9779 9.07802 35.9808C9.90816 35.9838 10.722 35.7508 11.4249 35.309C12.3132 34.754 12.9789 33.9052 13.3062 32.9102C13.6335 31.9152 13.6017 30.8369 13.2163 29.8629C15.7048 27.4508 19.0395 26.1099 22.5051 26.1277C24.1541 26.0978 25.7781 25.7193 27.2704 25.017C28.2467 27.2597 29.7444 29.2368 31.639 30.7839C33.5335 32.3309 35.77 33.4033 38.1626 33.9117H38.3059C38.6005 33.9731 38.9007 34.0031 39.2016 34.0012C40.2868 34.0006 41.3368 33.6168 42.1665 32.9174C42.7425 32.4376 43.2027 31.834 43.5129 31.1516C43.8231 30.4692 43.9752 29.7256 43.958 28.9762C43.9479 28.3736 44.0111 27.772 44.1461 27.1847C44.4478 25.875 45.1117 24.6766 46.062 23.7262C47.0124 22.7759 48.2108 22.112 49.5205 21.8103C50.107 21.6705 50.7092 21.6073 51.312 21.6222C52.0451 21.6269 52.7705 21.4715 53.4374 21.1667C54.1042 20.8619 54.6964 20.4151 55.1726 19.8576ZM22.4782 24.3363C18.5402 24.3428 14.7616 25.8928 11.9533 28.6537L11.4607 29.1464C11.3219 29.2869 11.2335 29.4694 11.2092 29.6654C11.1849 29.8614 11.2261 30.06 11.3263 30.2302C11.5448 30.5924 11.6748 31.0012 11.7055 31.4231C11.7362 31.845 11.6669 32.2683 11.5031 32.6584C11.3393 33.0484 11.0858 33.3944 10.7631 33.6679C10.4404 33.9415 10.0577 34.135 9.64607 34.2328C9.23446 34.3305 8.80558 34.3296 8.39435 34.2303C7.98313 34.131 7.60116 33.9359 7.27955 33.6611C6.95793 33.3862 6.70576 33.0393 6.54354 32.6486C6.38133 32.2579 6.31365 31.8344 6.34603 31.4126C6.36314 31.2798 6.3503 31.145 6.30845 31.0179C6.2666 30.8908 6.1968 30.7747 6.10418 30.6781C5.93734 30.5126 5.71215 30.4193 5.47717 30.4183H5.39655C4.97353 30.4541 4.54804 30.3892 4.15495 30.2288C3.76186 30.0684 3.41236 29.8172 3.13508 29.4958C2.8578 29.1743 2.66064 28.7917 2.55974 28.3793C2.45884 27.9669 2.45709 27.5365 2.55461 27.1233C2.65214 26.7102 2.84617 26.326 3.12082 26.0022C3.39546 25.6785 3.7429 25.4244 4.13467 25.2609C4.52643 25.0973 4.95137 25.0289 5.37468 25.0613C5.79798 25.0936 6.2076 25.2258 6.56997 25.447C6.74108 25.5494 6.94149 25.5918 7.13944 25.5675C7.3374 25.5432 7.52157 25.4535 7.66276 25.3126L8.14646 24.8199C10.9117 21.9848 12.4636 18.1838 12.4729 14.2234C12.4931 12.867 12.7949 11.5296 13.3593 10.296C13.9236 9.06248 14.7382 7.95965 15.7513 7.05751C17.5824 5.43998 19.9464 4.55548 22.3896 4.57366C24.8328 4.59185 27.1833 5.51143 28.9902 7.15604C30.4679 8.48442 31.5093 10.2285 31.978 12.1594C32.4467 14.0903 32.3206 16.1178 31.6164 17.9757C30.9121 19.8337 29.6626 21.4353 28.0318 22.5704C26.401 23.7055 24.4651 24.3211 22.4782 24.3363ZM53.829 18.7648C53.5115 19.1301 53.115 19.4183 52.6696 19.6076C52.2242 19.797 51.7416 19.8825 51.2582 19.8576C50.5205 19.8473 49.7841 19.9224 49.0637 20.0815C47.4257 20.4516 45.9261 21.2782 44.7387 22.4656C43.5513 23.653 42.7247 25.1526 42.3546 26.7906C42.1951 27.5139 42.1199 28.2534 42.1307 28.9941C42.1467 29.4671 42.0568 29.9377 41.8678 30.3716C41.6787 30.8055 41.3952 31.1918 41.0379 31.5021C40.718 31.7774 40.3396 31.9761 39.9314 32.0832C39.5232 32.1903 39.0959 32.203 38.6821 32.1202H38.5567C36.4112 31.6595 34.4094 30.6853 32.7229 29.2813C31.0365 27.8772 29.7157 26.0851 28.8738 24.0586C29.4874 23.6452 30.0603 23.1743 30.5846 22.6523C30.8407 22.3967 31.0829 22.1276 31.3102 21.8461C31.8603 23.1773 32.6957 24.3717 33.7573 25.3451C34.819 26.3185 36.0811 27.0474 37.4549 27.4803C37.7826 27.5829 38.13 27.6055 38.4682 27.5463C38.8063 27.4871 39.1254 27.3477 39.3987 27.1399C39.6853 26.9128 39.9154 26.6223 40.0709 26.2913C40.2263 25.9602 40.3028 25.5976 40.2944 25.232C40.2944 23.0939 41.1438 21.0434 42.6556 19.5316C44.1675 18.0197 46.218 17.1704 48.356 17.1704H49.0099C49.147 17.1859 49.2859 17.1695 49.4156 17.1225C49.5453 17.0755 49.6624 16.9992 49.7578 16.8994C49.8532 16.7997 49.9242 16.6793 49.9654 16.5477C50.0066 16.416 50.0168 16.2766 49.9952 16.1403C49.6442 14.4022 48.8306 12.791 47.6402 11.4767C46.4499 10.1624 44.9269 9.1937 43.232 8.67273C41.537 8.15177 39.7329 8.09787 38.0098 8.51671C36.2868 8.93555 34.7087 9.81161 33.442 11.0525C33.2047 10.2649 32.8834 9.50515 32.4836 8.78628C35.0471 6.54831 38.3725 5.38103 41.7724 5.5258C44.7677 5.67236 47.6303 6.80634 49.9134 8.7508C52.1965 10.6953 53.7718 13.3408 54.3933 16.2746V16.4C54.4768 16.8077 54.4669 17.2289 54.3646 17.6322C54.2622 18.0355 54.0699 18.4105 53.8021 18.7289L53.829 18.7648ZM33.872 13.256C34.744 12.0825 35.9187 11.1682 37.2703 10.611C38.622 10.0538 40.0997 9.8747 41.5453 10.0928C42.991 10.3109 44.3501 10.918 45.4772 11.8491C46.6043 12.7803 47.457 14.0004 47.944 15.3789C45.4108 15.4965 43.0204 16.5862 41.2703 18.4215C39.5201 20.2567 38.545 22.696 38.5477 25.232C38.5488 25.3203 38.5291 25.4077 38.4902 25.4871C38.4513 25.5664 38.3943 25.6355 38.3238 25.6888C38.2752 25.7272 38.2179 25.753 38.157 25.7639C38.096 25.7749 38.0334 25.7706 37.9745 25.7515C36.6524 25.3429 35.4577 24.6009 34.5054 23.5969C33.5532 22.5929 32.8754 21.3607 32.5373 20.0188C33.512 18.2356 34.003 16.2283 33.9616 14.1965C33.9526 13.892 33.9257 13.5874 33.872 13.256Z" fill="#90BF0A" stroke="#90BF0A" stroke-width="1.53555" mask="url(#path-4-inside-1_890_22150)"/>
</g>
<defs>
<clipPath id="clip0_890_22150">
<rect width="56" height="56" fill="white" transform="translate(0.5 0.5)"/>
</clipPath>
</defs>
</svg>
