<svg width="48" height="48" viewBox="0 0 48 48" fill="none" xmlns="http://www.w3.org/2000/svg">
<g clip-path="url(#clip0_892_4847)">
<path d="M1 29C1 39 11 47 24 47C37 47 47 39 47 29H1Z" stroke="#90BF0A" stroke-width="2" stroke-linecap="round" stroke-linejoin="round"/>
<path d="M20 22C19.724 21.4163 19.3229 20.9005 18.8252 20.4891C18.3274 20.0778 17.7453 19.7811 17.12 19.62C17.1662 19.0198 17.092 18.4163 16.9018 17.8452C16.7116 17.274 16.4092 16.7466 16.0124 16.2939C15.6156 15.8411 15.1323 15.4723 14.591 15.2089C14.0496 14.9455 13.4611 14.7929 12.86 14.76C12.7067 14.0768 12.4196 13.4308 12.0152 12.8592C11.6108 12.2876 11.0971 11.8019 10.5039 11.4299C9.9107 11.058 9.24967 10.8073 8.559 10.6923C7.86834 10.5773 7.16174 10.6003 6.48002 10.76C5.81194 10.9897 5.19698 11.3517 4.67183 11.8242C4.14668 12.2968 3.72212 12.8703 3.42346 13.5106C3.12481 14.1508 2.95819 14.8446 2.93354 15.5507C2.9089 16.2567 3.02673 16.9605 3.28002 17.62C2.49703 18.1505 1.90778 18.9212 1.60113 19.8159C1.29448 20.7106 1.28707 21.6807 1.58002 22.58C1.71593 23.0978 1.94648 23.5861 2.26002 24.02C1.93877 24.3315 1.67475 24.6971 1.48002 25.1" stroke="#90BF0A" stroke-width="2" stroke-linecap="round" stroke-linejoin="round"/>
<path d="M31.84 12.46C31.8124 11.2078 31.3568 10.0029 30.5489 9.04587C29.7411 8.08881 28.6297 7.43735 27.4 7.19996C27.3523 6.32877 27.1302 5.47602 26.7468 4.69224C26.3635 3.90845 25.8268 3.20958 25.1684 2.63702C24.5101 2.06445 23.7435 1.62985 22.9141 1.35896C22.0847 1.08807 21.2094 0.986394 20.34 1.05996C19.4849 1.22403 18.6714 1.5577 17.9474 2.04127C17.2233 2.52485 16.6035 3.14855 16.1244 3.87556C15.6453 4.60257 15.3167 5.41817 15.1579 6.27424C14.9992 7.13031 15.0135 8.00951 15.2 8.85996C14.3651 9.24841 13.6479 9.85079 13.121 10.606C12.5941 11.3612 12.2764 12.2423 12.2 13.16" stroke="#90BF0A" stroke-width="2" stroke-linecap="round" stroke-linejoin="round"/>
<path d="M43.12 25C43.7679 24.7341 44.3507 24.3312 44.8284 23.8191C45.3062 23.307 45.6676 22.6977 45.8879 22.0329C46.1083 21.3681 46.1823 20.6635 46.105 19.9675C46.0277 19.2714 45.8008 18.6002 45.44 18C45.8877 17.6058 46.2525 17.1266 46.5133 16.5902C46.7741 16.0537 46.9257 15.4708 46.9592 14.8753C46.9927 14.2798 46.9074 13.6836 46.7084 13.1213C46.5094 12.559 46.2006 12.0419 45.8 11.6C46.183 11.0068 46.4432 10.3428 46.565 9.64725C46.6869 8.95173 46.668 8.23884 46.5095 7.55074C46.351 6.86265 46.0561 6.21334 45.6422 5.64123C45.2284 5.06912 44.7039 4.58584 44.1 4.21998C43.4607 3.921 42.768 3.75322 42.0627 3.72655C41.3575 3.69988 40.654 3.81487 39.994 4.06472C39.334 4.31456 38.7307 4.6942 38.2199 5.18118C37.7091 5.66817 37.3011 6.25262 37.02 6.89998C36.3516 6.79537 35.6682 6.84081 35.0195 7.03302C34.3708 7.22522 33.773 7.55937 33.2695 8.01123C32.7659 8.4631 32.3692 9.02136 32.1081 9.64553C31.847 10.2697 31.7281 10.9442 31.76 11.62" stroke="#90BF0A" stroke-width="2" stroke-linecap="round" stroke-linejoin="round"/>
<path d="M20.46 24.9999C20.0808 24.0882 19.9325 23.097 20.0283 22.1142C20.124 21.1314 20.4608 20.1875 21.0088 19.3661C21.5568 18.5446 22.2991 17.8712 23.1697 17.4054C24.0404 16.9396 25.0126 16.6959 26 16.6959C26.9874 16.6959 27.9596 16.9396 28.8303 17.4054C29.7009 17.8712 30.4432 18.5446 30.9912 19.3661C31.5392 20.1875 31.876 21.1314 31.9717 22.1142C32.0675 23.097 31.9192 24.0882 31.54 24.9999" stroke="#90BF0A" stroke-width="2" stroke-linecap="round" stroke-linejoin="round"/>
<path d="M30.32 18.48C30.4672 18.1972 30.6414 17.9293 30.84 17.68C31.6781 16.5979 32.9117 15.893 34.2695 15.7205C35.6272 15.548 36.9979 15.9219 38.08 16.76C39.1621 17.598 39.8669 18.8317 40.0395 20.1894C40.212 21.5472 39.8381 22.9179 39 24C38.7146 24.3654 38.3855 24.6945 38.02 24.98" stroke="#90BF0A" stroke-width="2" stroke-linecap="round" stroke-linejoin="round"/>
<path d="M9 18.6799C10.2528 20.5542 10.9465 22.7462 11 24.9999" stroke="#90BF0A" stroke-width="2" stroke-linecap="round" stroke-linejoin="round"/>
<path d="M21 7.67993C22.2946 10.7864 22.9739 14.1146 23 17.4799" stroke="#90BF0A" stroke-width="2" stroke-linecap="round" stroke-linejoin="round"/>
<path d="M41 10.6799C39.3935 12.2852 37.9775 14.0703 36.78 15.9999" stroke="#90BF0A" stroke-width="2" stroke-linecap="round" stroke-linejoin="round"/>
</g>
<defs>
<clipPath id="clip0_892_4847">
<rect width="48" height="48" fill="white"/>
</clipPath>
</defs>
</svg>
