<svg width="48" height="48" viewBox="0 0 48 48" fill="none" xmlns="http://www.w3.org/2000/svg">
<path d="M1 36H47" stroke="#90BF0A" stroke-width="2" stroke-linecap="round" stroke-linejoin="round"/>
<path d="M43 36C43 29 33 30 33 30C32.3003 28.1948 31.0604 26.6497 29.4495 25.5758C27.8386 24.5019 25.9354 23.9516 24 24C22.0646 23.9516 20.1614 24.5019 18.5505 25.5758C16.9396 26.6497 15.6997 28.1948 15 30C15 30 5 29 5 36L8.448 42.894C8.61398 43.2262 8.86916 43.5056 9.18495 43.7009C9.50074 43.8963 9.86468 43.9998 10.236 44H37.764C38.1353 43.9998 38.4993 43.8963 38.8151 43.7009C39.1308 43.5056 39.386 43.2262 39.552 42.894L43 36Z" stroke="#90BF0A" stroke-width="2" stroke-linecap="round" stroke-linejoin="round"/>
<path d="M12 11C9 14 15 16 12 19" stroke="#90BF0A" stroke-width="2" stroke-linecap="round" stroke-linejoin="round"/>
<path d="M36 11C39 14 33 16 36 19" stroke="#90BF0A" stroke-width="2" stroke-linecap="round" stroke-linejoin="round"/>
<path d="M24 4C18 10 29.988 12 24 18" stroke="#90BF0A" stroke-width="2" stroke-linecap="round" stroke-linejoin="round"/>
</svg>
