<svg width="48" height="48" viewBox="0 0 48 48" fill="none" xmlns="http://www.w3.org/2000/svg">
<ellipse cx="24" cy="24" rx="23" ry="23" fill="white" stroke="#90BF0A"/>
<ellipse cx="23.9466" cy="23.9457" rx="19.8294" ry="19.8294" fill="#F4F9E7"/>
<path d="M18.7667 24.1713C19.8014 24.5068 20.4572 25.1528 20.7306 26.1111C21.004 27.0695 21.1416 28.142 21.1416 29.3288C21.1416 30.6066 20.9504 31.672 20.5698 32.5232C20.1891 33.3745 19.6781 34.0598 19.0383 34.5773C18.3986 35.0948 17.6606 35.4678 16.8225 35.6945C15.9844 35.9229 15.1087 36.0371 14.1956 36.0371C12.3675 36.0371 10.8754 35.5803 9.71739 34.6683C8.55942 33.7564 7.8893 32.2805 7.70703 30.2425L11.2256 29.6946C11.2864 30.7904 11.5687 31.581 12.0709 32.0681C12.573 32.5553 13.311 32.7981 14.2867 32.7981C15.0784 32.7981 15.8021 32.5464 16.4579 32.0449C17.1119 31.5435 17.4408 30.6226 17.4408 29.2842C17.4408 28.2509 17.2585 27.3978 16.8921 26.7286C16.5258 26.0594 15.8718 25.7239 14.9282 25.7239H12.9179V22.5758H15.0194C15.9022 22.5758 16.5276 22.3046 16.8921 21.7603C17.2585 21.2177 17.4408 20.4307 17.4408 19.4046C17.4408 18.5283 17.2049 17.8038 16.7331 17.2291C16.2613 16.6563 15.5072 16.369 14.4708 16.369C12.5819 16.369 11.5759 17.388 11.4543 19.426L8.0269 18.6961C8.1788 16.8669 8.83283 15.4677 9.9908 14.4951C11.1488 13.5243 12.6409 13.0371 14.469 13.0371C16.5705 13.0371 18.2074 13.5386 19.3814 14.5433C20.5537 15.5481 21.1398 17.0989 21.1398 19.1976C21.1398 19.7151 21.1005 20.2326 21.0255 20.7484C20.9486 21.2659 20.8199 21.7371 20.6377 22.1636C20.4554 22.5901 20.2106 22.9702 19.9068 23.3039C19.6012 23.6395 19.2206 23.8964 18.7649 24.0802V24.1713H18.7667Z" fill="#90BF0A"/>
<line x1="24.5" y1="1" x2="24.5" y2="15.375" stroke="#90BF0A"/>
<line x1="24.5" y1="32.625" x2="24.5" y2="47" stroke="#90BF0A"/>
<line x1="10.459" y1="24.5" x2="1.00104" y2="24.5" stroke="#90BF0A"/>
<path d="M26.4647 18.25C27.0905 18.25 27.6012 18.3332 27.996 18.4988C28.3908 18.6652 28.7081 18.8945 28.946 19.1894C29.1848 19.4833 29.3556 19.8313 29.4602 20.2306C29.5648 20.6307 29.6319 21.0646 29.6615 21.532C29.6912 21.9703 29.7138 22.4378 29.7286 22.9353C29.7435 23.4338 29.7513 23.8791 29.7513 24.2714C29.7513 25.1319 29.7068 25.9916 29.6179 26.8522C29.5439 27.456 29.394 27.9465 29.1708 28.3237C28.9477 28.7008 28.6749 28.9957 28.3551 29.2064C28.0343 29.418 27.6875 29.5614 27.3153 29.6367C26.9432 29.7119 26.5771 29.75 26.2198 29.75C25.757 29.75 25.3587 29.6898 25.0231 29.5685C24.6876 29.4481 24.4008 29.2896 24.162 29.0931C23.9232 28.8974 23.7297 28.6672 23.5807 28.4025C23.4317 28.1386 23.3201 27.8704 23.2452 27.5986C23.1998 27.4171 23.1632 27.1913 23.1327 26.9195C23.1031 26.6477 23.0839 26.3502 23.077 26.0253C23.0691 25.7012 23.0621 25.3728 23.0543 25.0407C23.0465 24.7087 23.043 24.3997 23.043 24.1129C23.043 23.7357 23.0499 23.347 23.0656 22.9469C23.0804 22.5476 23.1022 22.166 23.1327 21.8039C23.1624 21.4417 23.1998 21.1133 23.2452 20.8193C23.2896 20.5254 23.3498 20.2872 23.4238 20.1066C23.6321 19.5329 23.9825 19.0805 24.4749 18.7485C24.9665 18.4164 25.6297 18.25 26.4647 18.25ZM26.4194 19.903C26.1239 19.903 25.8546 19.9711 25.6114 20.1066C25.3683 20.2421 25.18 20.4829 25.0475 20.8291C24.9595 21.0398 24.9002 21.4798 24.8706 22.15C24.841 22.8203 24.8183 23.6065 24.8044 24.5086C24.8044 25.0053 24.8113 25.4905 24.827 25.9651C24.8419 26.4387 24.8863 26.8044 24.9604 27.0603C25.1669 27.7526 25.6533 28.0988 26.4202 28.0988C26.7296 28.0988 27.0024 28.0049 27.2386 27.8164C27.4748 27.6278 27.6517 27.3834 27.7703 27.0824C27.7999 27.0071 27.8295 26.8681 27.8583 26.6654C27.8879 26.4626 27.9132 26.2218 27.9359 25.9429C27.9576 25.6649 27.9725 25.3674 27.9803 25.0514C27.9873 24.7353 27.9916 24.4192 27.9916 24.1031C27.9916 23.7871 27.9882 23.4745 27.9803 23.1664C27.9725 22.8583 27.9655 22.5608 27.9576 22.2749C27.9507 21.9889 27.9359 21.733 27.9132 21.5073C27.8905 21.2815 27.8574 21.1009 27.8138 20.9654C27.6073 20.258 27.1427 19.9039 26.4194 19.9039V19.903Z" fill="#242925"/>
<path d="M36.0413 29.75V24.7814H35.3606C35.1183 24.7814 34.8875 24.8051 34.6683 24.8517C34.4491 24.8982 34.2485 24.984 34.0665 25.108C33.8846 25.233 33.7257 25.4155 33.5899 25.6563C33.4541 25.8972 33.3405 26.2047 33.25 26.5778L32.4787 29.75H30.709L31.6853 26.0176C31.8362 25.4429 32.0296 24.9529 32.2639 24.5479C32.4983 24.1437 32.8657 23.8791 33.3645 23.755C32.9704 23.631 32.65 23.3782 32.3997 22.9969C32.1503 22.6155 31.9498 22.1457 31.798 21.5855L30.9131 18.25H32.6376L33.5003 21.5627C33.5908 21.9358 33.716 22.236 33.8748 22.4604C34.0337 22.6858 34.2076 22.8573 34.3967 22.9741C34.5857 23.0909 34.7828 23.1648 34.9869 23.1958C35.191 23.2268 35.3987 23.2423 35.6108 23.2423H36.0422V18.25H37.835V23.2423H38.2663C38.4625 23.2423 38.6666 23.2268 38.8787 23.1958C39.09 23.1648 39.2906 23.0909 39.4805 22.9741C39.6695 22.8573 39.8435 22.6867 40.0024 22.4604C40.1612 22.2351 40.2864 21.9358 40.3769 21.5627L41.2396 18.25H42.9641L42.0792 21.5855C41.9274 22.1457 41.7277 22.6155 41.4774 22.9969C41.228 23.3782 40.9059 23.631 40.5127 23.755C41.0124 23.88 41.3789 24.1437 41.6132 24.5479C41.8475 24.952 42.0401 25.4419 42.1919 26.0176L43.1673 29.75H41.3976L40.6263 26.5778C40.5358 26.2047 40.4222 25.8981 40.2864 25.6563C40.1506 25.4155 39.9917 25.233 39.8098 25.108C39.6287 24.984 39.4272 24.8982 39.208 24.8517C38.9888 24.8051 38.758 24.7814 38.5157 24.7814H37.835V29.75H36.0422H36.0413Z" fill="#242925"/>
</svg>
