<svg width="40" height="40" viewBox="0 0 40 40" fill="none" xmlns="http://www.w3.org/2000/svg">
<rect x="9" y="9" width="22" height="22" rx="11" stroke="#242925" stroke-width="1.5"/>
<path d="M11.9993 20.0333C12.1863 20.0941 12.3049 20.2111 12.3543 20.3847C12.4037 20.5584 12.4286 20.7527 12.4286 20.9676C12.4286 21.1991 12.394 21.3921 12.3252 21.5463C12.2564 21.7006 12.164 21.8247 12.0484 21.9185C11.9327 22.0122 11.7993 22.0798 11.6478 22.1208C11.4963 22.1622 11.338 22.1829 11.1729 22.1829C10.8425 22.1829 10.5727 22.1001 10.3634 21.9349C10.1541 21.7697 10.0329 21.5024 10 21.1332L10.6361 21.0339C10.647 21.2324 10.6981 21.3756 10.7889 21.4639C10.8796 21.5522 11.013 21.5961 11.1894 21.5961C11.3325 21.5961 11.4634 21.5505 11.5819 21.4597C11.7001 21.3689 11.7596 21.202 11.7596 20.9596C11.7596 20.7724 11.7266 20.6178 11.6604 20.4966C11.5942 20.3754 11.476 20.3146 11.3054 20.3146H10.942V19.7443H11.3219C11.4815 19.7443 11.5945 19.6952 11.6604 19.5965C11.7266 19.4983 11.7596 19.3557 11.7596 19.1698C11.7596 19.0111 11.7169 18.8798 11.6317 18.7757C11.5464 18.6719 11.4101 18.6199 11.2227 18.6199C10.8812 18.6199 10.6994 18.8045 10.6774 19.1737L10.0578 19.0415C10.0853 18.7101 10.2035 18.4566 10.4128 18.2804C10.6222 18.1045 10.8919 18.0163 11.2224 18.0163C11.6023 18.0163 11.8982 18.1071 12.1104 18.2891C12.3223 18.4712 12.4283 18.7521 12.4283 19.1323C12.4283 19.2261 12.4212 19.3198 12.4076 19.4132C12.3937 19.507 12.3704 19.5923 12.3375 19.6696C12.3046 19.7469 12.2603 19.8157 12.2054 19.8762C12.1501 19.937 12.0813 19.9835 11.999 20.0168V20.0333H11.9993Z" fill="#242925"/>
<path d="M14.263 18C14.4949 18 14.6842 18.0304 14.8306 18.0908C14.9769 18.1516 15.0945 18.2354 15.1827 18.343C15.2712 18.4504 15.3345 18.5774 15.3733 18.7232C15.412 18.8693 15.4369 19.0278 15.4479 19.1985C15.4589 19.3585 15.4673 19.5292 15.4728 19.7109C15.4783 19.8929 15.4812 20.0555 15.4812 20.1987C15.4812 20.513 15.4647 20.8269 15.4317 21.1411C15.4043 21.3616 15.3487 21.5407 15.266 21.6785C15.1833 21.8162 15.0822 21.9238 14.9637 22.0008C14.8448 22.078 14.7162 22.1304 14.5783 22.1579C14.4403 22.1854 14.3047 22.1993 14.1722 22.1993C14.0007 22.1993 13.8531 22.1773 13.7287 22.133C13.6043 22.089 13.498 22.0312 13.4095 21.9594C13.321 21.888 13.2493 21.8039 13.1941 21.7072C13.1388 21.6109 13.0975 21.5129 13.0697 21.4137C13.0529 21.3474 13.0393 21.265 13.028 21.1657C13.017 21.0665 13.0099 20.9578 13.0073 20.8392C13.0044 20.7209 13.0019 20.6009 12.9989 20.4797C12.996 20.3584 12.9948 20.2456 12.9948 20.1409C12.9948 20.0031 12.9973 19.8612 13.0031 19.7151C13.0086 19.5693 13.0167 19.4299 13.028 19.2977C13.039 19.1655 13.0529 19.0455 13.0697 18.9382C13.0862 18.8309 13.1085 18.7439 13.1359 18.678C13.2131 18.4685 13.343 18.3033 13.5255 18.182C13.7077 18.0608 13.9535 18 14.263 18ZM14.2462 18.6036C14.1367 18.6036 14.0369 18.6285 13.9467 18.678C13.8566 18.7274 13.7868 18.8154 13.7377 18.9418C13.7051 19.0187 13.6831 19.1794 13.6722 19.4241C13.6612 19.6689 13.6528 19.9559 13.6476 20.2854C13.6476 20.4667 13.6502 20.6439 13.656 20.8172C13.6615 20.9902 13.678 21.1237 13.7054 21.2171C13.782 21.4699 13.9622 21.5963 14.2465 21.5963C14.3612 21.5963 14.4623 21.5621 14.5499 21.4932C14.6374 21.4243 14.703 21.3351 14.7469 21.2252C14.7579 21.1977 14.7689 21.147 14.7795 21.0729C14.7905 20.9989 14.7999 20.911 14.8083 20.8091C14.8164 20.7076 14.8219 20.599 14.8248 20.4836C14.8273 20.3681 14.829 20.2527 14.829 20.1373C14.829 20.0219 14.8277 19.9078 14.8248 19.7953C14.8219 19.6828 14.8193 19.5741 14.8164 19.4697C14.8138 19.3653 14.8083 19.2718 14.7999 19.1894C14.7915 19.107 14.7792 19.041 14.7631 18.9915C14.6865 18.7332 14.5143 18.6039 14.2462 18.6039V18.6036Z" fill="#242925"/>
<path d="M17.7807 22.1402V20.3796H17.5329C17.4447 20.3796 17.3607 20.388 17.2809 20.4045C17.2011 20.421 17.1281 20.4514 17.0619 20.4953C16.9957 20.5396 16.9378 20.6043 16.8884 20.6896C16.839 20.775 16.7976 20.8839 16.7647 21.0161L16.484 22.1402H15.8398L16.1952 20.8176C16.2501 20.614 16.3205 20.4404 16.4058 20.2968C16.4911 20.1536 16.6248 20.0598 16.8064 20.0159C16.6629 19.9719 16.5463 19.8824 16.4552 19.7472C16.3645 19.6121 16.2914 19.4456 16.2362 19.2471L15.9141 18.0651H16.5418L16.8558 19.239C16.8887 19.3712 16.9343 19.4776 16.9921 19.5571C17.0499 19.637 17.1133 19.6978 17.1821 19.7391C17.2509 19.7805 17.3226 19.8067 17.3969 19.8177C17.4712 19.8287 17.5468 19.8342 17.624 19.8342H17.781V18.0651H18.4335V19.8342H18.5905C18.6619 19.8342 18.7362 19.8287 18.8134 19.8177C18.8903 19.8067 18.9633 19.7805 19.0324 19.7391C19.1012 19.6978 19.1645 19.6373 19.2224 19.5571C19.2802 19.4773 19.3257 19.3712 19.3587 19.239L19.6727 18.0651H20.3003L19.9783 19.2471C19.923 19.4456 19.8504 19.6121 19.7593 19.7472C19.6685 19.8824 19.5512 19.9719 19.4081 20.0159C19.59 20.0602 19.7234 20.1536 19.8087 20.2968C19.894 20.44 19.9641 20.6136 20.0193 20.8176L20.3743 22.1402H19.7302L19.4495 21.0161C19.4165 20.8839 19.3752 20.7753 19.3257 20.6896C19.2763 20.6043 19.2185 20.5396 19.1523 20.4953C19.0864 20.4514 19.013 20.421 18.9333 20.4045C18.8535 20.388 18.7695 20.3796 18.6813 20.3796H18.4335V22.1402H17.781H17.7807Z" fill="#242925"/>
<path d="M22.6933 22.1421V20.3317H21.6196V22.1421H20.9506V18.0586H21.6196V19.7779H22.6933V18.0586H23.3624V22.1421H22.6933Z" fill="#242925"/>
<path d="M25.9256 22.1421V19.4556H25.9091L24.7032 22.1421H24.0756V18.0586H24.7116V20.7287H24.7281L25.9259 18.0586H26.5785V22.1421H25.9259H25.9256Z" fill="#242925"/>
<path d="M27.2858 22.1406V18.0651H27.9383V19.8342H28.2191C28.2904 19.8342 28.3647 19.8287 28.442 19.8177C28.5188 19.8067 28.5918 19.7805 28.661 19.7391C28.7298 19.6978 28.7931 19.6373 28.8509 19.5571C28.9087 19.4773 28.9543 19.3712 28.9872 19.239L29.3012 18.0651H29.9289L29.6068 19.2471C29.5516 19.4456 29.4789 19.6121 29.3878 19.7472C29.297 19.8824 29.1798 19.9719 29.0367 20.0159C29.2185 20.0602 29.352 20.1536 29.4372 20.2968C29.5225 20.44 29.5926 20.6136 29.6479 20.8176L30.0029 22.1402H29.3587L29.078 21.0161C29.0451 20.8839 29.0037 20.7753 28.954 20.6896C28.9045 20.6043 28.8467 20.5396 28.7805 20.4953C28.7143 20.4514 28.6413 20.421 28.5615 20.4045C28.4817 20.388 28.3977 20.3796 28.3095 20.3796H27.9377V22.1402H27.2852L27.2858 22.1406Z" fill="#242925"/>
</svg>
