<svg width="40" height="40" viewBox="0 0 40 40" fill="none" xmlns="http://www.w3.org/2000/svg">
<path d="M29.0672 19.8568L28.4253 19.469L29.0672 19.8568ZM20.1432 10.9328L19.7553 10.2908V10.2908L20.1432 10.9328ZM29.25 20C29.25 25.1086 25.1086 29.25 20 29.25V30.75C25.9371 30.75 30.75 25.9371 30.75 20H29.25ZM20 29.25C14.8914 29.25 10.75 25.1086 10.75 20H9.25C9.25 25.9371 14.0629 30.75 20 30.75V29.25ZM10.75 20C10.75 14.8914 14.8914 10.75 20 10.75V9.25C14.0629 9.25 9.25 14.0629 9.25 20H10.75ZM23.5 22.25C20.3244 22.25 17.75 19.6756 17.75 16.5H16.25C16.25 20.5041 19.4959 23.75 23.5 23.75V22.25ZM28.4253 19.469C27.4172 21.1373 25.5882 22.25 23.5 22.25V23.75C26.1349 23.75 28.4407 22.3439 29.7092 20.2447L28.4253 19.469ZM17.75 16.5C17.75 14.4118 18.8627 12.5828 20.531 11.5747L19.7553 10.2908C17.6561 11.5593 16.25 13.8651 16.25 16.5H17.75ZM20 10.75C19.9115 10.75 19.8077 10.7101 19.7324 10.6317C19.6686 10.5653 19.6538 10.5024 19.6503 10.477C19.6461 10.4459 19.6482 10.3556 19.7553 10.2908L20.531 11.5747C21.0342 11.2707 21.196 10.714 21.1368 10.2763C21.0754 9.82126 20.7166 9.25 20 9.25V10.75ZM29.7092 20.2447C29.6444 20.3518 29.5541 20.3539 29.523 20.3497C29.4976 20.3462 29.4347 20.3314 29.3683 20.2676C29.2899 20.1923 29.25 20.0885 29.25 20H30.75C30.75 19.2834 30.1787 18.9246 29.7237 18.8632C29.286 18.804 28.7293 18.9658 28.4253 19.469L29.7092 20.2447Z" fill="#242925"/>
<path d="M31.1642 4.84401C30.896 4.16137 29.9335 4.16137 29.6652 4.84401L28.9479 6.66949C28.866 6.8779 28.7017 7.04288 28.494 7.12508L26.6753 7.84503C25.9951 8.11426 25.9951 9.08037 26.6753 9.3496L28.494 10.0696C28.7017 10.1518 28.866 10.3167 28.9479 10.5251L29.6652 12.3506C29.9335 13.0333 30.896 13.0333 31.1642 12.3506L31.8815 10.5251C31.9634 10.3167 32.1278 10.1518 32.3355 10.0696L34.1542 9.3496C34.8343 9.08037 34.8343 8.11426 34.1542 7.84503L32.3355 7.12508C32.1278 7.04288 31.9634 6.8779 31.8815 6.66949L31.1642 4.84401Z" stroke="#242925" stroke-width="1.5"/>
<path d="M24.7187 14.5481C24.4504 13.8655 23.4879 13.8655 23.2196 14.5481L22.9581 15.2137C22.8762 15.4221 22.7118 15.5871 22.5042 15.6693L21.8411 15.9318C21.1609 16.201 21.1609 17.1672 21.8411 17.4364L22.5042 17.6989C22.7118 17.7811 22.8762 17.9461 22.9581 18.1545L23.2196 18.82C23.4879 19.5027 24.4504 19.5027 24.7187 18.82L24.9802 18.1545C25.0621 17.9461 25.2265 17.7811 25.4341 17.6989L26.0972 17.4364C26.7773 17.1672 26.7773 16.201 26.0972 15.9318L25.4341 15.6693C25.2265 15.5871 25.0621 15.4221 24.9802 15.2137L24.7187 14.5481Z" stroke="#242925" stroke-width="1.5"/>
</svg>
