<svg width="40" height="40" viewBox="0 0 40 40" fill="none" xmlns="http://www.w3.org/2000/svg">
<path d="M29 15V25C29 28 27.5 30 24 30H16C12.5 30 11 28 11 25V15C11 12 12.5 10 16 10H24C27.5 10 29 12 29 15Z" stroke="#292D32" stroke-width="1.5" stroke-miterlimit="10" stroke-linecap="round" stroke-linejoin="round"/>
<path d="M23.5 10V17.86C23.5 18.3 22.98 18.52 22.66 18.23L20.34 16.09C20.15 15.91 19.85 15.91 19.66 16.09L17.34 18.23C17.02 18.52 16.5 18.3 16.5 17.86V10H23.5Z" stroke="#292D32" stroke-width="1.5" stroke-miterlimit="10" stroke-linecap="round" stroke-linejoin="round"/>
<path d="M21.25 22H25.5" stroke="#292D32" stroke-width="1.5" stroke-miterlimit="10" stroke-linecap="round" stroke-linejoin="round"/>
<path d="M17 26H25.5" stroke="#292D32" stroke-width="1.5" stroke-miterlimit="10" stroke-linecap="round" stroke-linejoin="round"/>
</svg>
