<svg width="16" height="16" viewBox="0 0 16 16" fill="none" xmlns="http://www.w3.org/2000/svg">
<path d="M12.4238 10.4467L13.5681 7.01385C14.5678 4.01492 15.0676 2.51546 14.2761 1.72395C13.4846 0.932436 11.9851 1.43226 8.98618 2.4319L5.55329 3.57619C3.13286 4.383 1.92265 4.7864 1.57875 5.37797C1.25158 5.94073 1.25158 6.63577 1.57875 7.19853C1.92265 7.7901 3.13286 8.1935 5.55328 9.00031C5.85325 9.1003 6.19071 9.0289 6.41533 8.80637L10.0858 5.16995C10.2922 4.96537 10.6255 4.96692 10.8301 5.17341C11.0347 5.37991 11.0331 5.71315 10.8266 5.91773L7.21545 9.49543C6.96788 9.74071 6.88951 10.1161 6.99971 10.4467C7.80651 12.8671 8.20992 14.0774 8.80148 14.4213C9.36424 14.7484 10.0593 14.7484 10.6221 14.4213C11.2136 14.0774 11.617 12.8672 12.4238 10.4467Z" fill="white"/>
</svg>
