<svg width="40" height="40" viewBox="0 0 40 40" fill="none" xmlns="http://www.w3.org/2000/svg">
<path d="M29.6601 18.44L28.6801 22.62C27.8401 26.23 26.1801 27.69 23.0601 27.39C22.5601 27.35 22.0201 27.26 21.4401 27.12L19.7601 26.72C15.5901 25.73 14.3001 23.67 15.2801 19.49L16.2601 15.3C16.4601 14.45 16.7001 13.71 17.0001 13.1C18.1701 10.68 20.1601 10.03 23.5001 10.82L25.1701 11.21C29.3601 12.19 30.6401 14.26 29.6601 18.44Z" stroke="#242925" stroke-width="1.5" stroke-linecap="round" stroke-linejoin="round"/>
<path d="M23.06 27.39C22.44 27.81 21.66 28.16 20.71 28.47L19.13 28.99C15.16 30.27 13.07 29.2 11.78 25.23L10.5 21.28C9.21997 17.31 10.28 15.21 14.25 13.93L15.83 13.41C16.24 13.28 16.63 13.17 17 13.1C16.7 13.71 16.46 14.45 16.26 15.3L15.28 19.49C14.3 23.67 15.59 25.73 19.76 26.72L21.44 27.12C22.02 27.26 22.56 27.35 23.06 27.39Z" stroke="#242925" stroke-width="1.5" stroke-linecap="round" stroke-linejoin="round"/>
<path d="M20.64 16.53L25.49 17.76" stroke="#242925" stroke-width="1.5" stroke-linecap="round" stroke-linejoin="round"/>
<path d="M19.66 20.4L22.56 21.14" stroke="#242925" stroke-width="1.5" stroke-linecap="round" stroke-linejoin="round"/>
</svg>
