<svg width="16" height="16" viewBox="0 0 16 16" fill="none" xmlns="http://www.w3.org/2000/svg">
<path d="M14.6533 7.60663C14.4266 3.73997 10.9133 0.759975 6.86665 1.42664C4.07999 1.88664 1.84666 4.14663 1.41333 6.93329C1.15999 8.54663 1.49334 10.0733 2.22001 11.3333L1.62666 13.54C1.49333 14.04 1.95332 14.4933 2.44665 14.3533L4.61999 13.7533C5.60666 14.3333 6.75999 14.6666 7.99332 14.6666C11.7533 14.6666 14.8733 11.3533 14.6533 7.60663ZM11.2533 10.48C11.1933 10.6 11.12 10.7133 11.0266 10.82C10.86 11 10.68 11.1333 10.48 11.2133C10.28 11.3 10.06 11.34 9.82666 11.34C9.48666 11.34 9.11999 11.26 8.73999 11.0933C8.35332 10.9266 7.97334 10.7066 7.59334 10.4333C7.20667 10.1533 6.84666 9.83996 6.5 9.49997C6.15333 9.1533 5.84665 8.78662 5.56665 8.40662C5.29331 8.02662 5.07333 7.64663 4.91333 7.26663C4.75332 6.88663 4.67333 6.51997 4.67333 6.1733C4.67333 5.94664 4.71333 5.72664 4.79333 5.52664C4.87333 5.31997 5.00001 5.13331 5.18001 4.96664C5.39334 4.75331 5.62666 4.65331 5.87333 4.65331C5.96666 4.65331 6.05998 4.6733 6.14664 4.7133C6.23331 4.7533 6.31333 4.8133 6.37333 4.89997L7.14664 5.99329C7.20664 6.07996 7.25332 6.1533 7.27998 6.22663C7.31332 6.29996 7.32666 6.36663 7.32666 6.43329C7.32666 6.51329 7.3 6.59331 7.25333 6.67331C7.20667 6.7533 7.14665 6.8333 7.06665 6.9133L6.81331 7.17996C6.77331 7.21996 6.76 7.25997 6.76 7.3133C6.76 7.33997 6.76664 7.36663 6.77331 7.3933C6.78664 7.41996 6.79334 7.43997 6.8 7.45997C6.86 7.5733 6.96665 7.71329 7.11332 7.88662C7.26665 8.05996 7.42668 8.23996 7.60001 8.4133C7.78001 8.5933 7.95334 8.75329 8.13334 8.90662C8.30667 9.05329 8.45331 9.1533 8.56665 9.2133C8.58665 9.21997 8.60666 9.23329 8.62666 9.23996C8.65333 9.25329 8.68 9.2533 8.71333 9.2533C8.77333 9.2533 8.81335 9.2333 8.85335 9.1933L9.10664 8.93997C9.19331 8.8533 9.27334 8.7933 9.34667 8.7533C9.42667 8.70663 9.5 8.67996 9.58667 8.67996C9.65333 8.67996 9.72 8.6933 9.79333 8.72663C9.86666 8.75996 9.94665 8.79997 10.0266 8.85997L11.1333 9.64663C11.22 9.70663 11.28 9.77997 11.32 9.85997C11.3533 9.94664 11.3733 10.0266 11.3733 10.12C11.3333 10.2333 11.3067 10.36 11.2533 10.48Z" fill="white"/>
</svg>
