<svg width="41" height="40" viewBox="0 0 41 40" fill="none" xmlns="http://www.w3.org/2000/svg">
<path d="M10.5 10H12.24C13.32 10 14.17 10.93 14.08 12L13.25 21.96C13.11 23.59 14.4 24.99 16.04 24.99H26.69C28.13 24.99 29.39 23.81 29.5 22.38L30.04 14.88C30.16 13.22 28.9 11.87 27.23 11.87H14.32" stroke="white" stroke-width="1.5" stroke-miterlimit="10" stroke-linecap="round" stroke-linejoin="round"/>
<path d="M24.75 30C25.4404 30 26 29.4404 26 28.75C26 28.0596 25.4404 27.5 24.75 27.5C24.0596 27.5 23.5 28.0596 23.5 28.75C23.5 29.4404 24.0596 30 24.75 30Z" stroke="white" stroke-width="1.5" stroke-miterlimit="10" stroke-linecap="round" stroke-linejoin="round"/>
<path d="M16.75 30C17.4404 30 18 29.4404 18 28.75C18 28.0596 17.4404 27.5 16.75 27.5C16.0596 27.5 15.5 28.0596 15.5 28.75C15.5 29.4404 16.0596 30 16.75 30Z" stroke="white" stroke-width="1.5" stroke-miterlimit="10" stroke-linecap="round" stroke-linejoin="round"/>
<path d="M17.5 16H29.5" stroke="white" stroke-width="1.5" stroke-miterlimit="10" stroke-linecap="round" stroke-linejoin="round"/>
</svg>
