<svg width="41" height="40" viewBox="0 0 41 40" fill="none" xmlns="http://www.w3.org/2000/svg">
<path d="M24.75 30.5C25.7165 30.5 26.5 29.7165 26.5 28.75C26.5 27.7835 25.7165 27 24.75 27C23.7835 27 23 27.7835 23 28.75C23 29.7165 23.7835 30.5 24.75 30.5Z" fill="white"/>
<path d="M16.75 30.5C17.7165 30.5 18.5 29.7165 18.5 28.75C18.5 27.7835 17.7165 27 16.75 27C15.7835 27 15 27.7835 15 28.75C15 29.7165 15.7835 30.5 16.75 30.5Z" fill="white"/>
<path d="M13.34 11.94L13.14 14.39C13.1 14.86 13.47 15.25 13.94 15.25H29.25C29.67 15.25 30.02 14.93 30.05 14.51C30.18 12.74 28.83 11.3 27.06 11.3H14.77C14.67 10.86 14.47 10.44 14.16 10.09C13.66 9.56 12.96 9.25 12.24 9.25H10.5C10.09 9.25 9.75 9.59 9.75 10C9.75 10.41 10.09 10.75 10.5 10.75H12.24C12.55 10.75 12.84 10.88 13.05 11.1C13.26 11.33 13.36 11.63 13.34 11.94Z" fill="white"/>
<path d="M29.01 16.75H13.67C13.25 16.75 12.91 17.07 12.87 17.48L12.51 21.83C12.37 23.54 13.71 25 15.42 25H26.54C28.04 25 29.36 23.77 29.47 22.27L29.8 17.6C29.84 17.14 29.48 16.75 29.01 16.75Z" fill="white"/>
</svg>
