<svg width="41" height="40" viewBox="0 0 41 40" fill="none" xmlns="http://www.w3.org/2000/svg">
<path d="M15.99 10H14.09C11.9 10 10.75 11.15 10.75 13.33V15.23C10.75 17.41 11.9 18.56 14.08 18.56H15.98C18.16 18.56 19.31 17.41 19.31 15.23V13.33C19.32 11.15 18.17 10 15.99 10Z" fill="white"/>
<path d="M27.4199 10H25.5199C23.3399 10 22.1899 11.15 22.1899 13.33V15.23C22.1899 17.41 23.3399 18.56 25.5199 18.56H27.4199C29.5999 18.56 30.7499 17.41 30.7499 15.23V13.33C30.7499 11.15 29.5999 10 27.4199 10Z" fill="white"/>
<path d="M27.4199 21.4301H25.5199C23.3399 21.4301 22.1899 22.5801 22.1899 24.7601V26.6601C22.1899 28.8401 23.3399 29.9901 25.5199 29.9901H27.4199C29.5999 29.9901 30.7499 28.8401 30.7499 26.6601V24.7601C30.7499 22.5801 29.5999 21.4301 27.4199 21.4301Z" fill="white"/>
<path d="M15.99 21.4301H14.09C11.9 21.4301 10.75 22.5801 10.75 24.7601V26.6601C10.75 28.8501 11.9 30.0001 14.08 30.0001H15.98C18.16 30.0001 19.31 28.8501 19.31 26.6701V24.7701C19.32 22.5801 18.17 21.4301 15.99 21.4301Z" fill="white"/>
</svg>
