<svg width="41" height="40" viewBox="0 0 41 40" fill="none" xmlns="http://www.w3.org/2000/svg">
<path d="M30.75 16.52V11.98C30.75 10.57 30.11 10 28.52 10H24.48C22.89 10 22.25 10.57 22.25 11.98V16.51C22.25 17.93 22.89 18.49 24.48 18.49H28.52C30.11 18.5 30.75 17.93 30.75 16.52Z" stroke="white" stroke-width="1.5" stroke-linecap="round" stroke-linejoin="round"/>
<path d="M30.75 27.77V23.73C30.75 22.14 30.11 21.5 28.52 21.5H24.48C22.89 21.5 22.25 22.14 22.25 23.73V27.77C22.25 29.36 22.89 30 24.48 30H28.52C30.11 30 30.75 29.36 30.75 27.77Z" stroke="white" stroke-width="1.5" stroke-linecap="round" stroke-linejoin="round"/>
<path d="M19.25 16.52V11.98C19.25 10.57 18.61 10 17.02 10H12.98C11.39 10 10.75 10.57 10.75 11.98V16.51C10.75 17.93 11.39 18.49 12.98 18.49H17.02C18.61 18.5 19.25 17.93 19.25 16.52Z" stroke="white" stroke-width="1.5" stroke-linecap="round" stroke-linejoin="round"/>
<path d="M19.25 27.77V23.73C19.25 22.14 18.61 21.5 17.02 21.5H12.98C11.39 21.5 10.75 22.14 10.75 23.73V27.77C10.75 29.36 11.39 30 12.98 30H17.02C18.61 30 19.25 29.36 19.25 27.77Z" stroke="white" stroke-width="1.5" stroke-linecap="round" stroke-linejoin="round"/>
</svg>
