<svg width="21" height="20" viewBox="0 0 21 20" fill="none" xmlns="http://www.w3.org/2000/svg">
<path d="M18.0422 4.82165L12.2822 0.791647C10.7122 -0.308353 8.30219 -0.248353 6.79219 0.921647L1.78219 4.83165C0.782187 5.61165 -0.0078125 7.21165 -0.0078125 8.47165V15.3716C-0.0078125 17.9216 2.06219 20.0016 4.61219 20.0016H15.3922C17.9422 20.0016 20.0122 17.9316 20.0122 15.3816V8.60165C20.0122 7.25165 19.1422 5.59165 18.0422 4.82165ZM10.7522 16.0016C10.7522 16.4116 10.4122 16.7516 10.0022 16.7516C9.59219 16.7516 9.25219 16.4116 9.25219 16.0016V13.0016C9.25219 12.5916 9.59219 12.2516 10.0022 12.2516C10.4122 12.2516 10.7522 12.5916 10.7522 13.0016V16.0016Z" fill="white"/>
</svg>
