<svg width="40" height="40" viewBox="0 0 40 40" fill="none" xmlns="http://www.w3.org/2000/svg">
<path d="M20 10C17.38 10 15.25 12.13 15.25 14.75C15.25 17.32 17.26 19.4 19.88 19.49C19.96 19.48 20.04 19.48 20.1 19.49C20.12 19.49 20.13 19.49 20.15 19.49C20.16 19.49 20.16 19.49 20.17 19.49C22.73 19.4 24.74 17.32 24.75 14.75C24.75 12.13 22.62 10 20 10Z" fill="white"/>
<path d="M25.0809 22.1489C22.2909 20.2889 17.7409 20.2889 14.9309 22.1489C13.6609 22.9989 12.9609 24.1489 12.9609 25.3789C12.9609 26.6089 13.6609 27.7489 14.9209 28.5889C16.3209 29.5289 18.1609 29.9989 20.0009 29.9989C21.8409 29.9989 23.6809 29.5289 25.0809 28.5889C26.3409 27.7389 27.0409 26.5989 27.0409 25.3589C27.0309 24.1289 26.3409 22.9889 25.0809 22.1489Z" fill="white"/>
</svg>
