<svg width="40" height="40" viewBox="0 0 40 40" fill="none" xmlns="http://www.w3.org/2000/svg">
<path d="M20.1625 18.87C20.0625 18.86 19.9425 18.86 19.8325 18.87C17.4525 18.79 15.5625 16.84 15.5625 14.44C15.5625 11.99 17.5425 10 20.0025 10C22.4525 10 24.4425 11.99 24.4425 14.44C24.4325 16.84 22.5425 18.79 20.1625 18.87Z" stroke="white" stroke-width="1.5" stroke-linecap="round" stroke-linejoin="round"/>
<path d="M15.1588 22.56C12.7387 24.18 12.7387 26.82 15.1588 28.43C17.9088 30.27 22.4188 30.27 25.1688 28.43C27.5888 26.81 27.5888 24.17 25.1688 22.56C22.4288 20.73 17.9188 20.73 15.1588 22.56Z" stroke="white" stroke-width="1.5" stroke-linecap="round" stroke-linejoin="round"/>
</svg>
