<svg width="40" height="40" viewBox="0 0 40 40" fill="none" xmlns="http://www.w3.org/2000/svg">
<path d="M19 10H17C12 10 10 12 10 17V23C10 28 12 30 17 30H23C28 30 30 28 30 23V21" stroke="#292D32" stroke-width="1.5" stroke-linecap="round" stroke-linejoin="round"/>
<path d="M24.04 11.02L16.16 18.9C15.86 19.2 15.56 19.79 15.5 20.22L15.07 23.23C14.91 24.32 15.68 25.08 16.77 24.93L19.78 24.5C20.2 24.44 20.79 24.14 21.1 23.84L28.98 15.96C30.34 14.6 30.98 13.02 28.98 11.02C26.98 9.02001 25.4 9.66001 24.04 11.02Z" stroke="#292D32" stroke-width="1.5" stroke-miterlimit="10" stroke-linecap="round" stroke-linejoin="round"/>
<path d="M22.91 12.15C23.58 14.54 25.45 16.41 27.85 17.09" stroke="#292D32" stroke-width="1.5" stroke-miterlimit="10" stroke-linecap="round" stroke-linejoin="round"/>
</svg>
