<svg width="40" height="40" viewBox="0 0 40 40" fill="none" xmlns="http://www.w3.org/2000/svg">
<path fill-rule="evenodd" clip-rule="evenodd" d="M15.2628 11.2597C15.3832 10.1305 16.3389 9.25098 17.5 9.25098H22.5C23.6611 9.25098 24.6168 10.1305 24.7372 11.2597C25.5004 11.2752 26.1602 11.3147 26.7236 11.4182C27.4816 11.5574 28.1267 11.8227 28.6517 12.3476C29.2536 12.9495 29.5125 13.7074 29.6335 14.6075C29.75 15.4745 29.75 16.5768 29.75 17.9444V24.0541C29.75 25.4217 29.75 26.524 29.6335 27.391C29.5125 28.2911 29.2536 29.049 28.6517 29.6509C28.0497 30.2528 27.2919 30.5117 26.3918 30.6327C25.5248 30.7493 24.4225 30.7493 23.0549 30.7492H16.9451C15.5775 30.7493 14.4752 30.7493 13.6082 30.6327C12.7081 30.5117 11.9503 30.2528 11.3484 29.6509C10.7464 29.049 10.4875 28.2911 10.3665 27.391C10.25 26.524 10.25 25.4217 10.25 24.0541V17.9444C10.25 16.5768 10.25 15.4745 10.3665 14.6075C10.4875 13.7074 10.7464 12.9495 11.3484 12.3476C11.8733 11.8227 12.5184 11.5574 13.2764 11.4182C13.8398 11.3147 14.4996 11.2752 15.2628 11.2597ZM15.2648 12.7601C14.5467 12.7754 13.9933 12.8116 13.5473 12.8935C12.9805 12.9976 12.6525 13.1648 12.409 13.4082C12.1322 13.685 11.9518 14.0736 11.8531 14.8074C11.7516 15.5627 11.75 16.5638 11.75 17.9992V23.9992C11.75 25.4347 11.7516 26.4358 11.8531 27.1911C11.9518 27.9249 12.1322 28.3135 12.409 28.5902C12.6858 28.867 13.0743 29.0474 13.8081 29.1461C14.5635 29.2476 15.5646 29.2492 17 29.2492H23C24.4354 29.2492 25.4365 29.2476 26.1919 29.1461C26.9257 29.0474 27.3142 28.867 27.591 28.5902C27.8678 28.3135 28.0482 27.9249 28.1469 27.1911C28.2484 26.4358 28.25 25.4347 28.25 23.9992V17.9992C28.25 16.5638 28.2484 15.5627 28.1469 14.8074C28.0482 14.0736 27.8678 13.685 27.591 13.4082C27.3475 13.1648 27.0195 12.9976 26.4527 12.8935C26.0067 12.8116 25.4533 12.7754 24.7352 12.7601C24.6067 13.8807 23.655 14.751 22.5 14.751H17.5C16.345 14.751 15.3933 13.8807 15.2648 12.7601ZM17.5 10.751C17.0858 10.751 16.75 11.0868 16.75 11.501V12.501C16.75 12.9152 17.0858 13.251 17.5 13.251H22.5C22.9142 13.251 23.25 12.9152 23.25 12.501V11.501C23.25 11.0868 22.9142 10.751 22.5 10.751H17.5ZM18.2419 19.7906C18.0126 19.871 17.75 20.1217 17.75 20.6977C17.75 20.9123 17.8912 21.2433 18.2595 21.6691C18.6081 22.0722 19.0686 22.4552 19.4865 22.7619C19.7128 22.9279 19.8202 23.0044 19.9061 23.0498C19.9605 23.0785 19.9756 23.0785 20 23.0785C20.0244 23.0785 20.0395 23.0785 20.0939 23.0498C20.1798 23.0044 20.2872 22.9279 20.5135 22.7619C20.9314 22.4552 21.3919 22.0722 21.7405 21.6691C22.1088 21.2433 22.25 20.9123 22.25 20.6977C22.25 20.1217 21.9874 19.871 21.7581 19.7906C21.5078 19.7029 21.0442 19.7308 20.5187 20.234C20.2287 20.5118 19.7713 20.5118 19.4813 20.234C18.9558 19.7308 18.4922 19.7029 18.2419 19.7906ZM20 18.7353C19.2837 18.2637 18.475 18.1194 17.7457 18.3751C16.8125 18.7022 16.25 19.6005 16.25 20.6977C16.25 21.4676 16.6912 22.1488 17.1249 22.6503C17.5782 23.1744 18.1391 23.6337 18.5992 23.9712C18.6225 23.9883 18.646 24.0057 18.6697 24.0232C19.021 24.283 19.4207 24.5785 20 24.5785C20.5793 24.5785 20.9791 24.283 21.3303 24.0232C21.354 24.0057 21.3775 23.9883 21.4008 23.9712C21.8609 23.6337 22.4218 23.1745 22.8751 22.6503C23.3088 22.1488 23.75 21.4675 23.75 20.6977C23.75 19.6005 23.1875 18.7022 22.2543 18.3751C21.525 18.1194 20.7163 18.2637 20 18.7353Z" fill="#242925"/>
</svg>
