<svg width="40" height="40" viewBox="0 0 40 40" fill="none" xmlns="http://www.w3.org/2000/svg">
<path d="M25 26.4301H21L16.55 29.39C15.89 29.83 15 29.3601 15 28.5601V26.4301C12 26.4301 10 24.4301 10 21.4301V15.43C10 12.43 12 10.43 15 10.43H25C28 10.43 30 12.43 30 15.43V21.4301C30 24.4301 28 26.4301 25 26.4301Z" stroke="#292D32" stroke-width="1.5" stroke-miterlimit="10" stroke-linecap="round" stroke-linejoin="round"/>
<path d="M20.0001 19.36V19.15C20.0001 18.47 20.4201 18.11 20.8401 17.82C21.2501 17.54 21.66 17.18 21.66 16.52C21.66 15.6 20.9201 14.86 20.0001 14.86C19.0801 14.86 18.3401 15.6 18.3401 16.52" stroke="#292D32" stroke-width="1.5" stroke-linecap="round" stroke-linejoin="round"/>
<path d="M19.9955 21.75H20.0045" stroke="#292D32" stroke-width="1.5" stroke-linecap="round" stroke-linejoin="round"/>
</svg>
