<svg width="40" height="40" viewBox="0 0 40 40" fill="none" xmlns="http://www.w3.org/2000/svg">
<path d="M18.49 10.23L13.5 12.1C12.35 12.53 11.41 13.89 11.41 15.12V22.55C11.41 23.73 12.19 25.28 13.14 25.99L17.44 29.2C18.85 30.26 21.17 30.26 22.58 29.2L26.88 25.99C27.83 25.28 28.61 23.73 28.61 22.55V15.12C28.61 13.89 27.67 12.53 26.52 12.1L21.53 10.23C20.68 9.92 19.32 9.92 18.49 10.23Z" stroke="#292D32" stroke-width="1.5" stroke-linecap="round" stroke-linejoin="round"/>
<path d="M20.0001 18.92C19.9601 18.92 19.9101 18.92 19.8701 18.92C18.9301 18.89 18.1801 18.11 18.1801 17.16C18.1801 16.19 18.9701 15.4 19.9401 15.4C20.9101 15.4 21.7001 16.19 21.7001 17.16C21.6901 18.12 20.9401 18.89 20.0001 18.92Z" stroke="#292D32" stroke-width="1.5" stroke-linecap="round" stroke-linejoin="round"/>
<path d="M18.01 21.72C17.05 22.36 17.05 23.41 18.01 24.05C19.1 24.78 20.89 24.78 21.98 24.05C22.94 23.41 22.94 22.36 21.98 21.72C20.9 20.99 19.11 20.99 18.01 21.72Z" stroke="#292D32" stroke-width="1.5" stroke-linecap="round" stroke-linejoin="round"/>
</svg>
