<svg width="40" height="40" viewBox="0 0 40 40" fill="none" xmlns="http://www.w3.org/2000/svg">
<g clip-path="url(#clip0_216_8870)">
<path d="M7.56815 17.5659L23.3335 2.08203C28.3335 7.08203 25.0002 14.9987 22.5002 17.4987C25.0002 14.9987 32.9247 11.6654 37.9247 16.6654L22.433 32.4334C18.3387 36.6007 11.6319 36.6304 7.50087 32.4994C3.36937 28.3679 3.39958 21.66 7.56815 17.5659Z" stroke="#90BF0A" stroke-width="2" stroke-linecap="round" stroke-linejoin="round"/>
<path d="M34.3357 20.3247C30.2357 23.2278 24.5152 22.8482 20.8369 19.1698C17.1622 15.4952 16.7797 9.78264 19.673 5.68359" stroke="#90BF0A" stroke-width="2" stroke-linecap="round" stroke-linejoin="round"/>
<path d="M13.3339 11.9023C10.0842 16.024 10.3551 22.0247 14.1649 25.8345C17.9772 29.6467 23.983 29.9157 28.105 26.6592" stroke="#90BF0A" stroke-width="2" stroke-linecap="round" stroke-linejoin="round"/>
<path d="M26.1118 13.8212C25.4548 9.18124 27.0151 0.205163 38.5125 1.4206C40.4833 11.4807 31.0801 15.2173 26.1118 13.8212Z" stroke="#90BF0A" stroke-width="2" stroke-linecap="round" stroke-linejoin="round"/>
<path d="M1.00781 38.9929L22.5672 17.4336" stroke="#90BF0A" stroke-width="2" stroke-linecap="round" stroke-linejoin="round"/>
</g>
<defs>
<clipPath id="clip0_216_8870">
<rect width="40" height="40" fill="white"/>
</clipPath>
</defs>
</svg>
