<svg width="40" height="40" viewBox="0 0 40 40" fill="none" xmlns="http://www.w3.org/2000/svg">
<path d="M8.50438 1.36328L13.5735 4.17019C15.6263 7.56354 5.61378 23.8182 8.50438 25.4102L3.43531 22.6032C0.5447 21.0112 10.0114 4.17019 8.50438 1.36328Z" stroke="#90BF0A" stroke-width="2" stroke-linecap="round" stroke-linejoin="round"/>
<path d="M31.8793 14.7812L36.9485 17.5882C39.0013 20.9815 28.9888 37.2362 31.8793 38.828L26.8103 36.0212C23.9197 34.4292 33.3863 17.5882 31.8793 14.7812Z" stroke="#90BF0A" stroke-width="2" stroke-linecap="round" stroke-linejoin="round"/>
<path d="M9.82031 17.8187C12.7514 14.8972 18.9976 7.19435 20.1868 8.06874" stroke="#90BF0A" stroke-width="2" stroke-linecap="round" stroke-linejoin="round"/>
<path d="M8.5 25.3949C9.42218 26.0866 15.0541 22.0684 18.4793 15.6133" stroke="#90BF0A" stroke-linecap="round" stroke-linejoin="round"/>
<path d="M21.5 24.5413C24.4312 21.6198 30.6773 13.917 31.8665 14.7914" stroke="#90BF0A" stroke-width="2" stroke-linecap="round" stroke-linejoin="round"/>
<path d="M20.1875 32.1137C21.1098 32.8054 26.7417 28.7872 30.1668 22.332" stroke="#90BF0A" stroke-linecap="round" stroke-linejoin="round"/>
<path d="M20.1919 8.07031L25.2609 10.8772C27.3138 14.2706 17.3013 30.5252 20.1919 32.117L15.1228 29.3102C12.2322 27.7182 21.6989 10.8772 20.1919 8.07031Z" stroke="#90BF0A" stroke-width="2" stroke-linecap="round" stroke-linejoin="round"/>
</svg>
