<svg width="40" height="40" viewBox="0 0 40 40" fill="none" xmlns="http://www.w3.org/2000/svg">
<path d="M18.8884 3.5689C19.4877 2.86929 19.9967 2.29542 20.375 1.87625C20.7533 2.29542 21.2623 2.86929 21.8616 3.56891C23.1965 5.12714 24.9743 7.30367 26.7498 9.77992C28.5276 12.2593 30.2893 15.02 31.6029 17.7477C32.9245 20.4919 33.75 23.1165 33.75 25.3468C33.75 30.0159 32.2256 33.2897 29.871 35.4067C27.4989 37.5395 24.1668 38.603 20.375 38.603C16.5832 38.603 13.2511 37.5395 10.8789 35.4067C8.5244 33.2897 7 30.0159 7 25.3468C7 23.1165 7.82545 20.4919 9.14706 17.7477C10.4607 15.0199 12.2224 12.2593 14.0002 9.7799C15.7757 7.30366 17.5535 5.12714 18.8884 3.5689Z" stroke="#90BF0A" stroke-width="2" stroke-linecap="round" stroke-linejoin="round"/>
<circle cx="20.375" cy="25.2385" r="8" stroke="#90BF0A" stroke-width="2"/>
</svg>
